<?xml version="1.0" standalone="no"?>
<!DOCTYPE svg PUBLIC "-//W3C//DTD SVG 20010904//EN"
 "http://www.w3.org/TR/2001/REC-SVG-20010904/DTD/svg10.dtd">
<svg version="1.0" xmlns="http://www.w3.org/2000/svg"
 width="260.000000pt" height="260.000000pt" viewBox="0 0 260.000000 260.000000"
 preserveAspectRatio="xMidYMid meet">
<metadata>
Created by potrace 1.14, written by Peter Selinger 2001-2017
</metadata>
<g transform="translate(0.000000,260.000000) scale(0.100000,-0.100000)"
fill="#000000" stroke="none">
<path d="M883 2435 c-39 -16 -78 -69 -90 -120 -8 -35 -12 -40 -38 -41 -83 -3
-116 -52 -84 -123 11 -26 14 -41 7 -41 -7 0 -22 -10 -35 -22 -13 -12 -23 -17
-23 -12 0 19 -55 41 -96 38 -105 -7 -170 -76 -173 -186 -1 -21 -8 -29 -36 -38
-60 -20 -79 -95 -34 -134 16 -14 24 -33 25 -55 1 -18 6 -36 13 -40 8 -5 7 -13
-4 -27 -8 -10 -15 -25 -15 -32 0 -18 105 -117 180 -170 36 -25 67 -47 68 -48
2 -2 5 -20 7 -41 8 -102 27 -127 261 -361 167 -166 194 -197 194 -223 0 -17 5
-39 10 -50 9 -15 7 -19 -7 -19 -31 -1 -52 -25 -59 -69 -6 -35 -3 -46 16 -66
12 -13 36 -27 52 -30 25 -6 29 -11 23 -28 -10 -37 -17 -71 -19 -102 -1 -16 -8
-40 -14 -52 -18 -32 -15 -41 13 -35 23 4 30 -4 26 -30 -1 -13 79 -78 106 -84
16 -4 41 -16 57 -27 35 -25 124 -27 158 -5 13 8 46 23 75 32 56 18 103 56 103
81 0 9 6 15 13 13 7 -2 29 15 49 36 l36 39 -49 48 c-27 26 -49 52 -49 58 0 18
4 26 15 27 36 2 77 18 85 34 5 10 11 40 12 66 1 43 -2 50 -33 78 -24 21 -35
39 -34 56 1 14 3 36 4 50 2 27 73 112 179 213 200 191 252 252 252 301 0 20
214 160 268 177 62 18 57 36 -26 89 l-52 34 31 20 c77 48 64 147 -23 189 -29
14 -31 18 -32 75 -1 33 1 59 3 56 2 -2 12 20 22 49 11 33 14 56 8 62 -5 5 -38
9 -73 8 l-65 0 -6 38 c-4 22 -11 41 -16 45 -22 13 -109 -28 -144 -69 -43 -50
-45 -38 -4 37 55 101 34 169 -50 166 -66 -3 -70 -2 -82 40 -15 48 -85 126
-123 136 -53 13 -105 -2 -143 -41 -20 -20 -32 -42 -29 -50 3 -8 -13 -2 -35 14
-22 16 -47 28 -57 26 -9 -2 -20 -4 -24 -4 -20 -2 -26 -76 -8 -95 5 -5 3 -21
-5 -36 -8 -15 -11 -31 -7 -35 4 -4 -9 -6 -28 -4 -42 4 -60 -6 -60 -32 0 -10
-5 -19 -12 -19 -6 0 -9 3 -6 6 7 7 -58 202 -74 221 -12 15 -48 18 -48 4 0 -5
-9 -13 -21 -16 -13 -5 -18 -12 -14 -22 3 -9 -14 2 -38 24 -40 37 -57 45 -122
57 -12 2 -35 -2 -52 -9z m183 -1820 c14 -13 13 -15 -8 -15 -13 1 -34 7 -48 15
l-25 14 33 1 c18 0 40 -7 48 -15z m554 -5 c13 -8 13 -11 1 -22 -12 -11 -13
-10 -7 2 7 13 6 13 -6 0 -18 -21 -73 -39 -88 -30 -9 6 -6 12 11 21 13 7 28 12
33 11 5 -2 6 4 3 13 -7 17 28 21 53 5z"/>
</g>
</svg>
